# xmcd
#
# Track frame offsets:
#	150
#	25993
#	51018
#	70740
#	97205
#	119708
#	143463
#	172465
#	185350
#	207070
#
# Disc length: 3087 seconds
#
# Revision: 1
# Processed by: cddbd v1.4PL0 Copyright (c) Steve Scherf et al.
# Submitted via: EasyCDDAExtractor 5.0.7
#
DISCID=940c0d0a
DTITLE=Ngoc Lan Nhu Mai Kieu Nga - Bay Di Canh Chim Bien
DYEAR=1900
DGENRE=
TTITLE0=Mong du
TTITLE1=Doi em chang thiet duoc nguoi
TTITLE2=Xin tu hieu minh
TTITLE3=Tinh ngan nam con nho
TTITLE4=Mo uoc nguoi yeu ben toi
TTITLE5=Khuc luan vu mua mua
TTITLE6=Lai gan ben em
TTITLE7=Chuyen tinh yeu
TTITLE8=Tan Phai
TTITLE9=Bay di canh chim bien
EXTD=
EXTT0=
EXTT1=
EXTT2=
EXTT3=
EXTT4=
EXTT5=
EXTT6=
EXTT7=
EXTT8=
EXTT9=
PLAYORDER=
